<svg version="1.1" viewBox="0.0 0.0 626.2283464566929 380.9186351706037" fill="none" stroke="none" stroke-linecap="square" stroke-miterlimit="10" xmlns:xlink="http://www.w3.org/1999/xlink" xmlns="http://www.w3.org/2000/svg"><clipPath id="p.0"><path d="m0 0l626.22833 0l0 380.91864l-626.22833 0l0 -380.91864z" clip-rule="nonzero"/></clipPath><g clip-path="url(#p.0)"><path fill="#000000" fill-opacity="0.0" d="m0 0l626.22833 0l0 380.91864l-626.22833 0z" fill-rule="evenodd"/><path fill="#000000" fill-opacity="0.0" d="m26.233595 306.23627c27.714243 -1.7159424 96.14431 29.74179 166.28545 -10.295624c70.14114 -40.037415 187.15741 -188.74774 254.56137 -229.9289c67.40402 -41.18116 124.88547 -14.29837 149.86252 -17.158047" fill-rule="evenodd"/><path stroke="#000000" stroke-width="24.0" stroke-linejoin="round" stroke-linecap="butt" d="m26.233595 306.23627c27.71424 -1.7159119 96.1443 29.741821 166.28545 -10.295624c70.14114 -40.037415 187.15738 -188.74774 254.56137 -229.9289c2.1063843 -1.2869034 4.203064 -2.507347 6.2893677 -3.6643105l0.19665527 -0.108364105" fill-rule="evenodd"/><path fill="#000000" stroke="#000000" stroke-width="24.0" stroke-linecap="butt" d="m457.25125 101.709015l104.757965 -49.59396l-112.127625 -29.345934z" fill-rule="evenodd"/><path fill="#000000" fill-opacity="0.0" d="m599.99475 306.2375c-27.714233 -1.7159424 -96.14432 29.74179 -166.28546 -10.295624c-70.14111 -40.037415 -187.15738 -188.74774 -254.56137 -229.9289c-67.40398 -41.18116 -124.88542 -14.29837 -149.86252 -17.158043" fill-rule="evenodd"/><path stroke="#000000" stroke-width="24.0" stroke-linejoin="round" stroke-linecap="butt" d="m455.99487 306.41983l-0.19534302 -0.07293701c-0.27087402 -0.10205078 -0.5418701 -0.20498657 -0.8128967 -0.3088684c-0.54211426 -0.20779419 -1.0845947 -0.4192505 -1.6273804 -0.6345215c-2.171173 -0.86099243 -4.3475647 -1.7822266 -6.5280457 -2.7669067c-4.3609314 -1.9693298 -8.738068 -4.192383 -13.121887 -6.6947327c-70.141174 -40.037415 -187.15742 -188.74774 -254.5614 -229.9289c-67.40398 -41.18116 -124.88542 -14.29837 -149.86252 -17.158043" fill-rule="evenodd"/><path fill="#000000" stroke="#000000" stroke-width="24.0" stroke-linecap="butt" d="m456.04507 346.06137l108.864044 -39.77945l-108.96445 -39.50363z" fill-rule="evenodd"/></g></svg>